<svg width="28" height="28" viewBox="0 0 28 28" fill="none" xmlns="http://www.w3.org/2000/svg">
<path d="M14 21L8.67123 13.475C7.79901 12.4452 7.23731 11.1888 7.05156 9.85205C6.86581 8.51535 7.06364 7.15338 7.62202 5.92476C8.1804 4.69614 9.07634 3.65145 10.2055 2.91234C11.3347 2.17324 12.6506 1.77014 14 1.75C15.8705 1.76848 17.6575 2.52752 18.9695 3.86086C20.2815 5.19421 21.0116 6.99317 21 8.86375C21.0007 10.4956 20.4451 12.0789 19.425 13.3525L14 21ZM14 3.5C12.5928 3.51616 11.2496 4.09008 10.2653 5.09574C9.28097 6.1014 8.73597 7.4566 8.74998 8.86375C8.75659 10.148 9.21857 11.3882 10.0537 12.3638L14 17.955L18.0512 12.25C18.8213 11.2888 19.2438 10.0954 19.25 8.86375C19.264 7.4566 18.719 6.1014 17.7346 5.09574C16.7503 4.09008 15.4071 3.51616 14 3.5Z" fill="white"/>
<path d="M14 9.625C14.9665 9.625 15.75 8.8415 15.75 7.875C15.75 6.9085 14.9665 6.125 14 6.125C13.0335 6.125 12.25 6.9085 12.25 7.875C12.25 8.8415 13.0335 9.625 14 9.625Z" fill="white"/>
<path d="M24.5 10.5H22.75V12.25H24.5V24.5H3.5V12.25H5.25V10.5H3.5C3.03587 10.5 2.59075 10.6844 2.26256 11.0126C1.93437 11.3408 1.75 11.7859 1.75 12.25V24.5C1.75 24.9641 1.93437 25.4092 2.26256 25.7374C2.59075 26.0656 3.03587 26.25 3.5 26.25H24.5C24.9641 26.25 25.4092 26.0656 25.7374 25.7374C26.0656 25.4092 26.25 24.9641 26.25 24.5V12.25C26.25 11.7859 26.0656 11.3408 25.7374 11.0126C25.4092 10.6844 24.9641 10.5 24.5 10.5Z" fill="white"/>
</svg>
