<svg width="25" height="25" viewBox="0 0 25 25" fill="none" xmlns="http://www.w3.org/2000/svg">
<path d="M5.96552 0V8.27586M19.2069 0V8.27586M5.13793 12.4138H10.1034M20.0345 12.4138H15.069M5.13793 17.3793H10.1034M15.069 17.3793H20.0345M2.65517 4.13793H22.5172C22.9562 4.13793 23.3772 4.31231 23.6876 4.62272C23.998 4.93312 24.1724 5.35412 24.1724 5.7931V22.3448C24.1724 22.7838 23.998 23.2048 23.6876 23.5152C23.3772 23.8256 22.9562 24 22.5172 24H2.65517C2.21619 24 1.79519 23.8256 1.48479 23.5152C1.17438 23.2048 1 22.7838 1 22.3448V5.7931C1 5.35412 1.17438 4.93312 1.48479 4.62272C1.79519 4.31231 2.21619 4.13793 2.65517 4.13793Z" stroke="white"/>
</svg>
