<svg width="17" height="17" viewBox="0 0 17 17" fill="none" xmlns="http://www.w3.org/2000/svg">
<path d="M1.97403 1.61501C2.041 1.59523 2.11121 1.58886 2.18065 1.59624C2.25009 1.60363 2.3174 1.62463 2.37871 1.65805C2.44003 1.69147 2.49415 1.73666 2.53799 1.79101C2.58183 1.84537 2.61452 1.90784 2.63419 1.97484L3.02378 3.29376H13.4044C14.7077 3.29376 15.7029 4.50996 15.3275 5.78001L14.1552 9.74667C13.9059 10.5924 13.1133 11.1563 12.2321 11.1563H5.74661C4.86544 11.1563 4.07353 10.5924 3.82348 9.74667L1.61561 2.27588C1.57562 2.14081 1.59091 1.99538 1.65812 1.87158C1.72534 1.74778 1.83897 1.65504 1.97403 1.61501ZM4.42698 13.8125C4.42698 13.3898 4.5949 12.9844 4.89378 12.6856C5.19267 12.3867 5.59805 12.2188 6.02073 12.2188C6.44342 12.2188 6.8488 12.3867 7.14769 12.6856C7.44657 12.9844 7.61448 13.3898 7.61448 13.8125C7.61448 14.2352 7.44657 14.6406 7.14769 14.9395C6.8488 15.2383 6.44342 15.4063 6.02073 15.4063C5.59805 15.4063 5.19267 15.2383 4.89378 14.9395C4.5949 14.6406 4.42698 14.2352 4.42698 13.8125ZM10.0937 13.8125C10.0937 13.6032 10.1349 13.396 10.215 13.2026C10.2951 13.0092 10.4125 12.8335 10.5604 12.6856C10.7084 12.5376 10.8841 12.4202 11.0775 12.3401C11.2709 12.26 11.4781 12.2188 11.6874 12.2188C11.8967 12.2188 12.1039 12.26 12.2973 12.3401C12.4907 12.4202 12.6664 12.5376 12.8144 12.6856C12.9623 12.8335 13.0797 13.0092 13.1598 13.2026C13.2399 13.396 13.2812 13.6032 13.2812 13.8125C13.2812 14.2352 13.1132 14.6406 12.8144 14.9395C12.5155 15.2383 12.1101 15.4063 11.6874 15.4063C11.2647 15.4063 10.8593 15.2383 10.5604 14.9395C10.2616 14.6406 10.0937 14.2352 10.0937 13.8125Z" fill="black"/>
</svg>
