<svg width="60" height="60" viewBox="0 0 60 60" fill="none" xmlns="http://www.w3.org/2000/svg">
<path fill-rule="evenodd" clip-rule="evenodd" d="M51.3767 1.03333C48.0933 -1.98682e-07 45.0933 0 39.0933 0H20.9067C14.9067 0 11.9067 -1.98682e-07 8.62667 1.03333C6.88481 1.67114 5.30286 2.68086 3.99092 3.99222C2.67898 5.30359 1.66857 6.88509 1.03 8.62667C9.93411e-08 11.8667 0 14.8867 0 20.9067V39.0833C0 45.0933 -1.98682e-07 48.0933 1.03333 51.3767C1.66956 53.119 2.67877 54.7014 3.99038 56.013C5.30198 57.3246 6.8843 58.3338 8.62667 58.97C11.8667 60 14.8867 60 20.9067 60H39.0933C45.0933 60 48.0933 60 51.3767 58.95C53.119 58.3138 54.7014 57.3046 56.013 55.993C57.3246 54.6814 58.3338 53.099 58.97 51.3567C60 48.1133 60 45.0933 60 39.0767V20.9167C60 14.9067 60 11.9067 58.9667 8.62667C58.3312 6.88402 57.3227 5.30126 56.0117 3.98908C54.7006 2.6769 53.1187 1.67033 51.3767 1.03333ZM41.5 22.31C41.3897 22.4215 41.2583 22.51 41.1136 22.5703C40.9688 22.6307 40.8135 22.6618 40.6567 22.6618C40.4998 22.6618 40.3445 22.6307 40.1998 22.5703C40.055 22.51 39.9237 22.4215 39.8133 22.31L39.8333 22.3267C37.5696 20.3583 34.6764 19.2646 31.6767 19.2433C29.2033 19.2433 26.7367 20.1433 26.7367 22.41C26.7367 24.5733 28.9967 25.4 31.7533 26.41L32.4367 26.66C37.78 28.5067 42.1867 30.7767 42.1867 36.1567C42.1867 41.9967 37.76 46 30.4967 46.49L29.84 49.6667C29.7842 49.9478 29.6323 50.2008 29.4102 50.382C29.1882 50.5633 28.91 50.6616 28.6233 50.66L24.0767 50.6233C23.8925 50.6202 23.7114 50.5762 23.5463 50.4946C23.3813 50.4129 23.2364 50.2956 23.1222 50.1511C23.008 50.0066 22.9274 49.8386 22.886 49.6591C22.8447 49.4796 22.8438 49.2932 22.8833 49.1133L23.58 45.7667C20.8301 45.0424 18.3135 43.621 16.2733 41.64C16.1544 41.5222 16.06 41.382 15.9956 41.2276C15.9312 41.0731 15.898 40.9074 15.898 40.74C15.898 40.5726 15.9312 40.4069 15.9956 40.2524C16.06 40.098 16.1544 39.9578 16.2733 39.84L18.8067 37.3067C19.0354 37.0785 19.3453 36.9503 19.6683 36.9503C19.9914 36.9503 20.3013 37.0785 20.53 37.3067C22.9667 39.7567 26.1167 40.76 29.1167 40.76C32.4167 40.76 34.65 39.3933 34.65 37.0567C34.65 35.0067 32.8167 34.3167 29.3433 33.0133L28.1767 32.5767C23.71 30.9733 19.48 28.6367 19.48 23.2C19.48 16.92 24.6 13.8533 30.6367 13.5433L31.2933 10.3767C31.3479 10.0977 31.4971 9.84613 31.7158 9.66452C31.9344 9.48291 32.2091 9.3824 32.4933 9.38H37.0267C37.8067 9.38 38.39 10.1133 38.2267 10.89L37.49 14.4533C39.8053 15.2297 41.9457 16.4528 43.79 18.0533C44.3133 18.56 44.3433 19.4033 43.8467 19.8733L41.5 22.31Z" fill="#18192E"/>
</svg>
