<svg width="18" height="18" viewBox="0 0 18 18" fill="none" xmlns="http://www.w3.org/2000/svg">
<path d="M8.28745 9L5.3812 4.93125C5.2062 4.68125 5.18445 4.422 5.31595 4.1535C5.44745 3.885 5.6692 3.7505 5.9812 3.75C6.1062 3.75 6.22495 3.77825 6.33745 3.83475C6.44995 3.89125 6.53745 3.96925 6.59995 4.06875L10.125 9L6.59995 13.9313C6.53745 14.0313 6.44995 14.1095 6.33745 14.166C6.22495 14.2225 6.1062 14.2505 5.9812 14.25C5.6812 14.25 5.46245 14.1157 5.32495 13.8472C5.18745 13.5787 5.2062 13.3192 5.3812 13.0687L8.28745 9ZM12.75 9L9.8437 4.93125C9.6687 4.68125 9.6467 4.422 9.7777 4.1535C9.9087 3.885 10.131 3.7505 10.4445 3.75C10.5695 3.75 10.6882 3.77825 10.8007 3.83475C10.9132 3.89125 11.0007 3.96925 11.0632 4.06875L14.5875 9L11.0625 13.9313C11 14.0313 10.9125 14.1095 10.8 14.166C10.6875 14.2225 10.5687 14.2505 10.4437 14.25C10.1437 14.25 9.92495 14.1157 9.78745 13.8472C9.64995 13.5787 9.6687 13.3192 9.8437 13.0687L12.75 9Z" fill="black"/>
</svg>
