<svg width="15" height="15" viewBox="0 0 15 15" fill="none" xmlns="http://www.w3.org/2000/svg">
<g clip-path="url(#clip0_270_2995)">
<path fill-rule="evenodd" clip-rule="evenodd" d="M1.82893 0.313458C1.62685 0.118289 1.35621 0.0102947 1.07528 0.0127358C0.794357 0.015177 0.525629 0.127858 0.326978 0.32651C0.128326 0.525161 0.0156452 0.793889 0.013204 1.07481C0.0107628 1.35574 0.118757 1.62638 0.313926 1.82846L5.985 7.49953L0.313926 13.1706C0.211594 13.2694 0.12997 13.3877 0.0738175 13.5184C0.017665 13.6491 -0.0118916 13.7897 -0.0131279 13.932C-0.0143641 14.0742 0.0127449 14.2153 0.0666172 14.347C0.12049 14.4787 0.200047 14.5983 0.300646 14.6989C0.401245 14.7995 0.520872 14.879 0.652547 14.9329C0.784222 14.9868 0.925307 15.0139 1.06757 15.0127C1.20983 15.0114 1.35043 14.9819 1.48115 14.9257C1.61186 14.8696 1.73009 14.7879 1.82893 14.6856L7.5 9.01453L13.1711 14.6856C13.3731 14.8808 13.6438 14.9888 13.9247 14.9863C14.2056 14.9839 14.4744 14.8712 14.673 14.6726C14.8717 14.4739 14.9843 14.2052 14.9868 13.9242C14.9892 13.6433 14.8812 13.3727 14.6861 13.1706L9.015 7.49953L14.6861 1.82846C14.8812 1.62638 14.9892 1.35574 14.9868 1.07481C14.9843 0.793889 14.8717 0.525161 14.673 0.32651C14.4744 0.127858 14.2056 0.015177 13.9247 0.0127358C13.6438 0.0102947 13.3731 0.118289 13.1711 0.313458L7.5 5.98453L1.82893 0.313458Z" fill="white"/>
</g>
<defs>
<clipPath id="clip0_270_2995">
<rect width="15" height="15" fill="white"/>
</clipPath>
</defs>
</svg>
