<svg width="18" height="18" viewBox="0 0 18 18" fill="none" xmlns="http://www.w3.org/2000/svg">
<path d="M9 15.7498L7.9125 14.7748C6.65 13.6373 5.60625 12.6561 4.78125 11.8311C3.95625 11.0061 3.3 10.2653 2.8125 9.60881C2.325 8.95231 1.9845 8.3493 1.791 7.7998C1.5975 7.2503 1.5005 6.6878 1.5 6.1123C1.5 4.9373 1.89375 3.95605 2.68125 3.16855C3.46875 2.38105 4.45 1.9873 5.625 1.9873C6.275 1.9873 6.89375 2.1248 7.48125 2.3998C8.06875 2.6748 8.575 3.0623 9 3.5623C9.425 3.0623 9.93125 2.6748 10.5187 2.3998C11.1062 2.1248 11.725 1.9873 12.375 1.9873C13.55 1.9873 14.5312 2.38105 15.3187 3.16855C16.1062 3.95605 16.5 4.9373 16.5 6.1123C16.5 6.6873 16.4033 7.2498 16.2098 7.7998C16.0163 8.3498 15.6755 8.95281 15.1875 9.60881C14.6995 10.2648 14.0433 11.0056 13.2188 11.8311C12.3942 12.6566 11.3505 13.6378 10.0875 14.7748L9 15.7498Z" fill="white"/>
</svg>
