<svg width="25" height="26" viewBox="0 0 25 26" fill="none" xmlns="http://www.w3.org/2000/svg">
<path d="M9.84254 20.2H14.3589M1.20612 14.4568C0.807556 11.6992 0.607707 10.3216 1.09886 9.0988C1.58889 7.8772 2.67733 7.0408 4.85309 5.3692L6.47898 4.12C9.18541 2.0404 10.5392 1 12.1007 1C13.6623 1 15.016 2.0404 17.7225 4.12L19.3484 5.3692C21.5241 7.0408 22.6114 7.8772 23.1026 9.0988C23.5926 10.3216 23.3939 11.6992 22.9953 14.4556L22.6555 16.8076C22.0909 20.7148 21.8075 22.6684 20.4887 23.8348C19.17 25.0012 17.2426 25 13.3868 25H10.8136C6.95771 25 5.03036 25 3.71158 23.8348C2.3928 22.6684 2.11053 20.7148 1.54485 16.8064L1.20612 14.4568Z" stroke="white" stroke-width="1.5" stroke-linecap="round" stroke-linejoin="round"/>
</svg>
