<svg width="24" height="24" viewBox="0 0 24 24" fill="none" xmlns="http://www.w3.org/2000/svg">
<path d="M13.61 12.243C13.604 12.5598 13.504 12.8676 13.3228 13.1275C13.1416 13.3875 12.8873 13.5877 12.5921 13.7029C12.297 13.8182 11.9743 13.8432 11.6649 13.7748C11.3555 13.7064 11.0734 13.5477 10.8544 13.3188C10.6353 13.0899 10.4891 12.8011 10.4344 12.489C10.3796 12.1769 10.4187 11.8556 10.5468 11.5658C10.6749 11.276 10.8861 11.0307 11.1537 10.8611C11.4213 10.6915 11.7332 10.6051 12.05 10.613C12.4709 10.6286 12.8692 10.8075 13.1604 11.1118C13.4516 11.4161 13.6129 11.8218 13.61 12.243Z" fill="black"/>
<path d="M14.763 7.23297H9.33797C8.80117 7.23297 8.28635 7.44621 7.90678 7.82579C7.52721 8.20536 7.31396 8.72017 7.31396 9.25697V14.804C7.31396 15.0698 7.36632 15.333 7.46803 15.5785C7.56975 15.8241 7.71883 16.0472 7.90678 16.2352C8.09473 16.4231 8.31785 16.5722 8.56341 16.6739C8.80898 16.7756 9.07217 16.828 9.33797 16.828H14.763C15.0288 16.828 15.292 16.7756 15.5375 16.6739C15.7831 16.5722 16.0062 16.4231 16.1941 16.2352C16.3821 16.0472 16.5312 15.8241 16.6329 15.5785C16.7346 15.333 16.787 15.0698 16.787 14.804V9.26697C16.788 9.00041 16.7365 8.73626 16.6352 8.48966C16.534 8.24306 16.3851 8.01886 16.1971 7.82991C16.0091 7.64095 15.7856 7.49096 15.5395 7.38853C15.2934 7.28609 15.0295 7.23323 14.763 7.23297ZM12.05 14.956C11.5129 14.9681 10.9845 14.8199 10.532 14.5304C10.0795 14.2408 9.72362 13.823 9.50965 13.3303C9.29568 12.8376 9.23338 12.2923 9.33068 11.764C9.42799 11.2357 9.68049 10.7484 10.056 10.3643C10.4314 9.98014 10.9129 9.71658 11.4388 9.60724C11.9647 9.49791 12.5113 9.54775 13.0088 9.75042C13.5062 9.95309 13.9321 10.2994 14.2318 10.7451C14.5316 11.1909 14.6918 11.7158 14.692 12.253C14.6963 12.604 14.6314 12.9525 14.5009 13.2784C14.3704 13.6044 14.177 13.9014 13.9316 14.1524C13.6862 14.4035 13.3937 14.6037 13.0708 14.7416C12.7479 14.8795 12.401 14.9523 12.05 14.956ZM14.986 9.55097C14.92 9.55098 14.8547 9.53783 14.7938 9.51228C14.733 9.48673 14.6778 9.4493 14.6317 9.40218C14.5855 9.35506 14.5491 9.29919 14.5248 9.23785C14.5005 9.17652 14.4886 9.11094 14.49 9.04497C14.49 8.91077 14.5433 8.78207 14.6382 8.68718C14.7331 8.59228 14.8618 8.53897 14.996 8.53897C15.1302 8.53897 15.2589 8.59228 15.3538 8.68718C15.4487 8.78207 15.502 8.91077 15.502 9.04497C15.504 9.11641 15.4905 9.18743 15.4625 9.25318C15.4345 9.31892 15.3926 9.37784 15.3397 9.42589C15.2868 9.47394 15.2241 9.51 15.156 9.53159C15.0879 9.55318 15.0159 9.55979 14.945 9.55097H14.986Z" fill="black"/>
<path d="M12.05 2C9.39784 1.98674 6.84903 3.02759 4.96429 4.89358C3.07955 6.75957 2.01326 9.29784 2 11.95C1.98674 14.6022 3.02759 17.151 4.89358 19.0357C6.75957 20.9205 9.29784 21.9867 11.95 22C13.2632 22.0066 14.5649 21.7544 15.7806 21.2579C16.9964 20.7615 18.1025 20.0304 19.0357 19.1064C19.9689 18.1825 20.7111 17.0838 21.2197 15.873C21.7283 14.6623 21.9934 13.3632 22 12.05C22.0066 10.7368 21.7544 9.43513 21.2579 8.21936C20.7615 7.00359 20.0304 5.89752 19.1064 4.96429C18.1825 4.03106 17.0838 3.28896 15.873 2.78034C14.6623 2.27173 13.3632 2.00657 12.05 2ZM18.123 14.702C18.1258 15.1506 18.0395 15.5954 17.8691 16.0104C17.6988 16.4254 17.4477 16.8025 17.1305 17.1198C16.8133 17.4371 16.4363 17.6883 16.0213 17.8587C15.6063 18.0292 15.1616 18.1157 14.713 18.113H9.389C8.94037 18.1158 8.49565 18.0295 8.08061 17.8591C7.66558 17.6888 7.28849 17.4377 6.9712 17.1205C6.65392 16.8033 6.40275 16.4263 6.23226 16.0113C6.06177 15.5963 5.97535 15.1516 5.978 14.703V9.378C5.97522 8.92937 6.06151 8.48465 6.23188 8.06961C6.40225 7.65458 6.6533 7.27749 6.97049 6.9602C7.28769 6.64292 7.6647 6.39175 8.07969 6.22126C8.49467 6.05077 8.93937 5.96435 9.388 5.967H14.713C15.1616 5.96435 15.6062 6.05074 16.0211 6.22117C16.436 6.3916 16.813 6.64267 17.1302 6.95985C17.4473 7.27703 17.6984 7.654 17.8688 8.06892C18.0393 8.48384 18.1257 8.92845 18.123 9.377V14.702Z" fill="black"/>
</svg>
