<svg width="15" height="21" viewBox="0 0 15 21" fill="none" xmlns="http://www.w3.org/2000/svg">
<path d="M7.5 10C6.83696 10 6.20107 9.73661 5.73223 9.26777C5.26339 8.79893 5 8.16304 5 7.5C5 6.83696 5.26339 6.20107 5.73223 5.73223C6.20107 5.26339 6.83696 5 7.5 5C8.16304 5 8.79893 5.26339 9.26777 5.73223C9.73661 6.20107 10 6.83696 10 7.5C10 7.8283 9.93534 8.15339 9.8097 8.45671C9.68406 8.76002 9.49991 9.03562 9.26777 9.26777C9.03562 9.49991 8.76002 9.68406 8.45671 9.8097C8.15339 9.93534 7.8283 10 7.5 10ZM7.5 0.5C5.64348 0.5 3.86301 1.2375 2.55025 2.55025C1.2375 3.86301 0.5 5.64348 0.5 7.5C0.5 12.75 7.5 20.5 7.5 20.5C7.5 20.5 14.5 12.75 14.5 7.5C14.5 5.64348 13.7625 3.86301 12.4497 2.55025C11.137 1.2375 9.35652 0.5 7.5 0.5Z" fill="black"/>
</svg>
