<svg width="20" height="20" viewBox="0 0 20 20" fill="none" xmlns="http://www.w3.org/2000/svg">
<path d="M2.72293 2.8219L6.26893 15.2319L9.30893 9.1519L14.9459 6.8969L2.72293 2.8219ZM0.656926 0.0259045L19.4629 6.2939C19.5603 6.32617 19.6453 6.38757 19.7066 6.46981C19.7678 6.55204 19.8023 6.65111 19.8054 6.75361C19.8084 6.85611 19.7799 6.95706 19.7237 7.0428C19.6674 7.12853 19.5862 7.1949 19.4909 7.2329L10.7579 10.7259L6.33293 19.5759C6.2879 19.666 6.2167 19.7404 6.12865 19.7894C6.04061 19.8384 5.93983 19.8596 5.83951 19.8503C5.7392 19.841 5.64404 19.8016 5.56649 19.7373C5.48894 19.673 5.43263 19.5868 5.40493 19.4899L0.018926 0.635905C-0.00582175 0.548534 -0.0063081 0.456073 0.0175189 0.368446C0.0413458 0.28082 0.0885866 0.201337 0.15417 0.138529C0.219754 0.0757204 0.301205 0.0319585 0.389779 0.0119406C0.478353 -0.00807742 0.570706 -0.00259582 0.656926 0.0259045Z" fill="black"/>
</svg>
