<svg width="15" height="17" viewBox="0 0 15 17" fill="none" xmlns="http://www.w3.org/2000/svg">
<g clip-path="url(#clip0_272_3308)">
<path d="M12.2294 1.32321C11.445 0.429187 10.0272 0.0458984 8.21328 0.0458984H2.94891C2.76943 0.0458708 2.59584 0.109886 2.45935 0.226428C2.32286 0.34297 2.23244 0.504391 2.20434 0.681653L0.0123563 14.5838C-0.0312132 14.8579 0.181062 15.1062 0.458916 15.1062H3.70896L4.52518 9.92898L4.49985 10.0911C4.558 9.72515 4.87098 9.45523 5.2416 9.45523H6.78601C9.82001 9.45523 12.1957 8.2229 12.8896 4.65802C12.9102 4.55259 12.9281 4.44997 12.9435 4.34971C12.8559 4.30333 12.8559 4.30333 12.9435 4.34971C13.1501 3.0321 12.9421 2.13521 12.2294 1.32321Z" fill="#27346A"/>
<path d="M5.76877 3.87506C5.8576 3.83269 5.95479 3.81076 6.05321 3.81089H10.1804C10.6691 3.81089 11.125 3.8427 11.5415 3.90974C11.6581 3.92834 11.774 3.95053 11.8892 3.97628C12.0525 4.01231 12.2139 4.0564 12.3728 4.10839C12.5776 4.17679 12.7683 4.25644 12.9436 4.34971C13.1501 3.03159 12.9421 2.13521 12.2294 1.32321C11.4446 0.429187 10.0272 0.0458984 8.21328 0.0458984H2.94846C2.57778 0.0458984 2.26244 0.315759 2.20434 0.681653L0.0123566 14.5833C-0.0312129 14.8579 0.181062 15.1058 0.458466 15.1058H3.70896L5.40237 4.36705C5.41903 4.2615 5.46109 4.16158 5.52491 4.07588C5.58874 3.99018 5.67242 3.92127 5.76877 3.87506Z" fill="#27346A"/>
<path d="M12.8896 4.65792C12.1957 8.22229 9.82006 9.45513 6.78601 9.45513H5.24115C4.87052 9.45513 4.55749 9.72504 4.4999 10.091L3.48446 16.5282C3.44652 16.7681 3.63206 16.9855 3.87478 16.9855H6.61449C6.77143 16.9855 6.9232 16.9294 7.04252 16.8275C7.16183 16.7255 7.24086 16.5844 7.26538 16.4293L7.29207 16.2897L7.80843 13.0172L7.8417 12.8363C7.86622 12.6813 7.94524 12.5402 8.06454 12.4382C8.18385 12.3363 8.33561 12.2802 8.49254 12.2802H8.90256C11.5565 12.2802 13.6346 11.202 14.2419 8.08364C14.4954 6.7805 14.3642 5.6925 13.6937 4.92828C13.4903 4.69681 13.2377 4.50565 12.9435 4.34961C12.9276 4.45037 12.9103 4.55248 12.8896 4.65792Z" fill="#2790C3"/>
<path d="M12.2172 4.05986C12.109 4.02827 11.9998 4.0003 11.8897 3.97599C11.7745 3.95065 11.6585 3.92861 11.542 3.9099C11.125 3.84241 10.6695 3.81055 10.1803 3.81055H6.05367C5.95519 3.81038 5.85795 3.83249 5.76923 3.87523C5.67275 3.92126 5.58895 3.99013 5.5251 4.07586C5.46124 4.16159 5.41925 4.2616 5.40277 4.36721L4.52564 9.92869L4.50031 10.0908C4.558 9.72486 4.87098 9.45494 5.24166 9.45494H6.78652C9.82052 9.45494 12.1961 8.22261 12.8901 4.65773C12.9107 4.5523 12.9281 4.45013 12.944 4.34943C12.7683 4.25673 12.578 4.17644 12.3732 4.10855C12.3215 4.09142 12.2695 4.07518 12.2173 4.05986" fill="#1F264F"/>
</g>
<defs>
<clipPath id="clip0_272_3308">
<rect width="14.42" height="17" fill="white"/>
</clipPath>
</defs>
</svg>
