<svg width="35" height="35" viewBox="0 0 35 35" fill="none" xmlns="http://www.w3.org/2000/svg">
<path fill-rule="evenodd" clip-rule="evenodd" d="M24.1383 32.2774C22.0383 32.2001 16.0869 31.3776 9.85396 25.1461C3.6225 18.9132 2.80146 12.9632 2.72271 10.8618C2.60604 7.65927 5.05896 4.54864 7.8925 3.33385C8.23372 3.18651 8.60738 3.13041 8.97682 3.17107C9.34626 3.21172 9.69878 3.34772 9.99979 3.56573C12.3331 5.26614 13.9431 7.83864 15.3256 9.86135C15.6298 10.3057 15.7599 10.8465 15.691 11.3806C15.6222 11.9148 15.3592 12.4049 14.9523 12.7576L12.1071 14.8707C11.9696 14.97 11.8729 15.1158 11.8348 15.281C11.7967 15.4462 11.8199 15.6196 11.9 15.7691C12.5446 16.9401 13.6908 18.6843 15.0033 19.9968C16.3158 21.3093 18.1431 22.5314 19.3958 23.2489C19.5529 23.337 19.7378 23.3617 19.9125 23.3177C20.0871 23.2738 20.2383 23.1646 20.335 23.0126L22.1871 20.1936C22.5276 19.7413 23.0299 19.4383 23.5888 19.3481C24.1477 19.2578 24.7199 19.3873 25.1854 19.7095C27.2373 21.1299 29.6319 22.7122 31.3848 24.9566C31.6205 25.2598 31.7704 25.6207 31.8189 26.0017C31.8674 26.3826 31.8127 26.7696 31.6604 27.1222C30.4398 29.9703 27.351 32.3955 24.1383 32.2774Z" fill="#E8BD81"/>
</svg>
