<svg width="18" height="18" viewBox="0 0 18 18" fill="none" xmlns="http://www.w3.org/2000/svg">
<g clip-path="url(#clip0_272_3148)">
<path d="M17.4492 0.364503C17.397 0.234463 17.2967 0.12956 17.1691 0.0716173C17.0415 0.0136743 16.8965 0.00715235 16.7642 0.0534083C16.6319 0.0996643 16.5226 0.195137 16.4589 0.319964C16.3952 0.444792 16.3821 0.589363 16.4223 0.723603C17.2584 3.1266 15.5988 4.9212 14.3334 5.8824L13.8222 5.1498C13.6503 4.9041 13.266 4.6998 12.9672 4.6962L10.098 4.7088C9.74753 4.7193 9.40638 4.82441 9.11074 5.013L0.656143 10.9413C0.459488 11.0797 0.32568 11.2904 0.284016 11.5272C0.242351 11.764 0.296226 12.0077 0.433843 12.2049L4.27594 17.7021C4.56394 18.1116 5.02384 18.0621 5.43424 17.7759L13.8888 11.8467C14.1318 11.6748 14.4126 11.304 14.5116 11.0205L15.4098 8.19C15.5088 7.9074 15.4485 7.4763 15.2766 7.2306L14.9652 6.7842C16.6644 5.4819 18.4284 3.1806 17.4492 0.364503ZM13.5153 8.7867C13.2006 9.00642 12.8116 9.09229 12.4336 9.02547C12.0557 8.95865 11.7197 8.7446 11.4993 8.4303C11.2788 8.11499 11.1923 7.72505 11.259 7.34607C11.3256 6.96709 11.5399 6.63004 11.8548 6.4089C12.1019 6.23632 12.3966 6.14505 12.6979 6.14779C12.9992 6.15053 13.2922 6.24715 13.536 6.4242C13.2912 6.5718 13.1229 6.6582 13.0914 6.6717C12.9799 6.7249 12.8897 6.81441 12.8357 6.92557C12.7816 7.03673 12.7669 7.16295 12.794 7.28354C12.8211 7.40413 12.8884 7.51195 12.9848 7.58932C13.0811 7.66669 13.2009 7.70903 13.3245 7.7094C13.4025 7.7094 13.4796 7.6917 13.5558 7.6563C13.731 7.5741 13.9167 7.4751 14.1129 7.3593C14.1573 7.62933 14.1248 7.9064 14.0191 8.15883C13.9135 8.41125 13.7389 8.62884 13.5153 8.7867Z" fill="black"/>
</g>
<defs>
<clipPath id="clip0_272_3148">
<rect width="18" height="18" fill="white"/>
</clipPath>
</defs>
</svg>
