<svg width="27" height="28" viewBox="0 0 27 28" fill="none" xmlns="http://www.w3.org/2000/svg">
<path d="M4.39087 20.5622C4.39087 19.0924 4.94022 17.6829 5.91807 16.6436C6.89593 15.6044 8.22218 15.0205 9.60507 15.0205H20.0335C21.4164 15.0205 22.7426 15.6044 23.7205 16.6436C24.6983 17.6829 25.2477 19.0924 25.2477 20.5622C25.2477 21.297 24.973 22.0018 24.4841 22.5214C23.9952 23.0411 23.332 23.333 22.6406 23.333H6.99797C6.30652 23.333 5.6434 23.0411 5.15447 22.5214C4.66555 22.0018 4.39087 21.297 4.39087 20.5622Z" stroke="white" stroke-width="1.5" stroke-linejoin="round"/>
<path d="M14.8192 9.479C16.979 9.479 18.7299 7.61819 18.7299 5.32275C18.7299 3.02732 16.979 1.1665 14.8192 1.1665C12.6594 1.1665 10.9086 3.02732 10.9086 5.32275C10.9086 7.61819 12.6594 9.479 14.8192 9.479Z" stroke="white" stroke-width="1.5"/>
</svg>
