<svg width="18" height="18" viewBox="0 0 18 18" fill="none" xmlns="http://www.w3.org/2000/svg">
<path fill-rule="evenodd" clip-rule="evenodd" d="M9.75 2.25C9.75 2.05109 9.67098 1.86032 9.53033 1.71967C9.38968 1.57902 9.19891 1.5 9 1.5C8.80109 1.5 8.61032 1.57902 8.46967 1.71967C8.32902 1.86032 8.25 2.05109 8.25 2.25V2.8125H7.83225C7.02827 2.81245 6.2545 3.11879 5.66844 3.66918C5.08239 4.21956 4.72812 4.9726 4.67775 5.775L4.512 8.4255C4.44793 9.43591 4.10868 10.4095 3.531 11.241C3.41148 11.4128 3.33844 11.6126 3.31901 11.821C3.29957 12.0294 3.33439 12.2392 3.42009 12.4302C3.50578 12.6211 3.63942 12.7866 3.80803 12.9106C3.97663 13.0346 4.17445 13.1129 4.38225 13.1378L6.9375 13.4437V14.25C6.9375 14.797 7.1548 15.3216 7.54159 15.7084C7.92839 16.0952 8.45299 16.3125 9 16.3125C9.54701 16.3125 10.0716 16.0952 10.4584 15.7084C10.8452 15.3216 11.0625 14.797 11.0625 14.25V13.4437L13.6178 13.137C13.8254 13.112 14.0231 13.0338 14.1916 12.9098C14.3601 12.7859 14.4937 12.6205 14.5794 12.4296C14.665 12.2388 14.6999 12.0291 14.6806 11.8208C14.6612 11.6125 14.5883 11.4128 14.469 11.241C13.8913 10.4095 13.5521 9.43591 13.488 8.4255L13.3223 5.77575C13.2721 4.97322 12.9179 4.21999 12.3318 3.66945C11.7457 3.11891 10.9718 2.81246 10.1678 2.8125H9.75V2.25ZM7.83225 3.9375C7.31443 3.93744 6.81605 4.13473 6.43859 4.48921C6.06112 4.84368 5.83294 5.3287 5.8005 5.8455L5.6355 8.496C5.55839 9.71156 5.15015 10.8828 4.455 11.883C4.44635 11.8954 4.44106 11.9099 4.43965 11.9249C4.43824 11.94 4.44075 11.9552 4.44694 11.969C4.45313 11.9828 4.46279 11.9948 4.47498 12.0038C4.48717 12.0128 4.50147 12.0184 4.5165 12.0203L7.31925 12.357C8.436 12.4905 9.564 12.4905 10.6808 12.357L13.4835 12.0203C13.4985 12.0184 13.5128 12.0128 13.525 12.0038C13.5372 11.9948 13.5469 11.9828 13.5531 11.969C13.5593 11.9552 13.5618 11.94 13.5603 11.9249C13.5589 11.9099 13.5536 11.8954 13.545 11.883C12.8501 10.8828 12.4421 9.71149 12.3653 8.496L12.1995 5.8455C12.1671 5.3287 11.9389 4.84368 11.5614 4.48921C11.1839 4.13473 10.6856 3.93744 10.1678 3.9375H7.83225ZM9 15.1875C8.4825 15.1875 8.0625 14.7675 8.0625 14.25V13.6875H9.9375V14.25C9.9375 14.7675 9.5175 15.1875 9 15.1875Z" fill="white"/>
</svg>
