<svg width="26" height="24" viewBox="0 0 26 24" fill="none" xmlns="http://www.w3.org/2000/svg">
<path d="M2.28141 24C1.63106 24 1.08847 23.7826 0.653647 23.3478C0.218824 22.9129 0.000941176 22.3703 0 21.72V6.5153C0 5.86588 0.217882 5.32377 0.653647 4.88894C1.08941 4.45412 1.63153 4.23624 2.28 4.2353H8.47059V2.28C8.47059 1.63059 8.68847 1.088 9.12423 0.652238C9.56 0.216473 10.1026 -0.000938134 10.752 3.0426e-06H14.6612C15.3106 3.0426e-06 15.8532 0.217415 16.2889 0.652238C16.7247 1.08706 16.9421 1.62965 16.9412 2.28V4.2353H23.1318C23.7812 4.2353 24.3233 4.45318 24.7581 4.88894C25.1929 5.32471 25.4108 5.8673 25.4118 6.51671V21.72C25.4118 22.3694 25.1939 22.912 24.7581 23.3478C24.3223 23.7835 23.7802 24.0009 23.1318 24H2.28141ZM2.28141 22.5882H23.1318C23.3482 22.5882 23.5473 22.4979 23.7289 22.3172C23.9106 22.1365 24.0009 21.9369 24 21.7186V6.51671C24 6.2993 23.9096 6.09977 23.7289 5.91812C23.5482 5.73647 23.3492 5.64612 23.1318 5.64706H2.28C2.06353 5.64706 1.86447 5.73741 1.68282 5.91812C1.50118 6.09883 1.41082 6.29836 1.41176 6.51671V21.72C1.41176 21.9365 1.50212 22.1355 1.68282 22.3172C1.86353 22.4988 2.06259 22.5892 2.28 22.5882M9.88235 4.2353H15.5294V2.28C15.5294 2.06353 15.4391 1.86447 15.2584 1.68283C15.0776 1.50118 14.8786 1.41083 14.6612 1.41177H10.7506C10.5341 1.41177 10.3351 1.50212 10.1534 1.68283C9.97176 1.86353 9.88141 2.06259 9.88235 2.28V4.2353ZM12 14.8235V19.0588H13.4118V14.8235H17.6471V13.4118H13.4118V9.17647H12V13.4118H7.7647V14.8235H12Z" fill="white"/>
</svg>
