<svg width="17" height="17" viewBox="0 0 17 17" fill="none" xmlns="http://www.w3.org/2000/svg">
<path d="M12.0416 12.75C11.2553 12.75 10.6249 13.3804 10.6249 14.1667C10.6249 14.5424 10.7742 14.9027 11.0399 15.1684C11.3055 15.4341 11.6659 15.5834 12.0416 15.5834C12.4173 15.5834 12.7776 15.4341 13.0433 15.1684C13.309 14.9027 13.4583 14.5424 13.4583 14.1667C13.4583 13.791 13.309 13.4306 13.0433 13.165C12.7776 12.8993 12.4173 12.75 12.0416 12.75ZM0.708252 1.41669V2.83335H2.12492L4.67492 8.2096L3.71159 9.94502C3.60533 10.1434 3.54159 10.3771 3.54159 10.625C3.54159 11.0007 3.69084 11.3611 3.95652 11.6268C4.22219 11.8924 4.58253 12.0417 4.95825 12.0417H13.4583V10.625H5.25575C5.20879 10.625 5.16374 10.6064 5.13054 10.5732C5.09733 10.5399 5.07867 10.4949 5.07867 10.4479C5.07867 10.4125 5.08575 10.3842 5.09992 10.3629L5.73742 9.20835H11.0145C11.5458 9.20835 12.0133 8.91085 12.2541 8.47877L14.7899 3.89585C14.8395 3.78252 14.8749 3.6621 14.8749 3.54169C14.8749 3.35383 14.8003 3.17366 14.6675 3.04082C14.5346 2.90798 14.3544 2.83335 14.1666 2.83335H3.69034L3.0245 1.41669M4.95825 12.75C4.172 12.75 3.54159 13.3804 3.54159 14.1667C3.54159 14.5424 3.69084 14.9027 3.95652 15.1684C4.22219 15.4341 4.58253 15.5834 4.95825 15.5834C5.33398 15.5834 5.69431 15.4341 5.95999 15.1684C6.22566 14.9027 6.37492 14.5424 6.37492 14.1667C6.37492 13.791 6.22566 13.4306 5.95999 13.165C5.69431 12.8993 5.33398 12.75 4.95825 12.75Z" fill="black"/>
</svg>
