<svg width="25" height="26" viewBox="0 0 25 26" fill="none" xmlns="http://www.w3.org/2000/svg">
<path d="M23.5865 25H1.00464M21.3283 25V11.8M3.26282 25V11.8" stroke="white" stroke-width="1.5" stroke-linecap="round"/>
<path d="M17.4081 1H7.18304C5.82474 1 5.14616 1 4.6008 1.3588C4.05432 1.7164 3.7506 2.362 3.14428 3.6532L1.5579 7.912C1.19208 8.896 0.871418 10.0552 1.4879 10.8868C1.77832 11.2792 2.17667 11.5656 2.62746 11.7061C3.07825 11.8466 3.55904 11.8341 4.00286 11.6705C4.44669 11.5069 4.83146 11.2003 5.10357 10.7933C5.37569 10.3863 5.52161 9.89927 5.52101 9.4C5.52101 10.0365 5.75893 10.647 6.18242 11.0971C6.60591 11.5471 7.18029 11.8 7.7792 11.8C8.3781 11.8 8.95248 11.5471 9.37597 11.0971C9.79946 10.647 10.0374 10.0365 10.0374 9.4C10.0374 10.0365 10.2753 10.647 10.6988 11.0971C11.1223 11.5471 11.6967 11.8 12.2956 11.8C12.8945 11.8 13.4688 11.5471 13.8923 11.0971C14.3158 10.647 14.5537 10.0365 14.5537 9.4C14.5537 10.0365 14.7917 10.647 15.2151 11.0971C15.6386 11.5471 16.213 11.8 16.8119 11.8C17.4108 11.8 17.9852 11.5471 18.4087 11.0971C18.8322 10.647 19.0701 10.0365 19.0701 9.4C19.07 9.89887 19.2162 10.3854 19.4884 10.7918C19.7605 11.1983 20.1451 11.5045 20.5886 11.6679C21.0321 11.8313 21.5125 11.8438 21.963 11.7036C22.4134 11.5634 22.8116 11.2775 23.1021 10.8856C23.7186 10.054 23.3979 8.8948 23.0321 7.9108L21.4468 3.6532C20.8405 2.362 20.5368 1.7164 19.9903 1.3588C19.445 1 18.7664 1 17.4081 1Z" stroke="white" stroke-width="1.5" stroke-linejoin="round"/>
<path d="M9.47278 24.4V20.8C9.47278 19.678 9.47278 19.1176 9.69973 18.7C9.84837 18.4264 10.0622 18.1992 10.3196 18.0412C10.7125 17.8 11.2398 17.8 12.2955 17.8C13.3512 17.8 13.8785 17.8 14.2714 18.0412C14.5289 18.1992 14.7426 18.4264 14.8913 18.7C15.1182 19.1176 15.1182 19.678 15.1182 20.8V24.4" stroke="white" stroke-width="1.5" stroke-linecap="round"/>
</svg>
