<svg width="22" height="24" viewBox="0 0 22 24" fill="none" xmlns="http://www.w3.org/2000/svg">
<path d="M15.7746 7.47418V5.25822C15.7746 4.5677 15.6386 3.88394 15.3744 3.24598C15.1101 2.60803 14.7228 2.02837 14.2346 1.5401C13.7463 1.05183 13.1666 0.664508 12.5287 0.400258C11.8907 0.136008 11.207 0 10.5164 0C9.82591 0 9.14216 0.136008 8.5042 0.400258C7.86624 0.664508 7.28658 1.05183 6.79831 1.5401C6.31004 2.02837 5.92272 2.60803 5.65847 3.24598C5.39422 3.88394 5.25822 4.5677 5.25822 5.25822V10.5164C5.25822 10.7157 5.33736 10.9067 5.47823 11.0476C5.6191 11.1885 5.81017 11.2676 6.00939 11.2676C6.20861 11.2676 6.39968 11.1885 6.54055 11.0476C6.68142 10.9067 6.76056 10.7157 6.76056 10.5164V8.97653H12.77V7.47418H6.76056V5.25822C6.76056 4.2621 7.15627 3.30678 7.86063 2.60242C8.56499 1.89805 9.52031 1.50235 10.5164 1.50235C11.5125 1.50235 12.4679 1.89805 13.1722 2.60242C13.8766 3.30678 14.2723 4.2621 14.2723 5.25822V10.4789C14.2723 10.6781 14.3514 10.8692 14.4923 11.01C14.6332 11.1509 14.8242 11.23 15.0235 11.23C15.2227 11.23 15.4138 11.1509 15.5546 11.01C15.6955 10.8692 15.7746 10.6781 15.7746 10.4789V8.97653H19.5305V22.4977H1.50235V8.97653H3.75587V7.47418H0V22.5653C0 22.9458 0.15116 23.3107 0.420226 23.5798C0.689292 23.8488 1.05422 24 1.43474 24H19.5981C19.9786 24 20.3436 23.8488 20.6126 23.5798C20.8817 23.3107 21.0329 22.9458 21.0329 22.5653V7.47418H15.7746Z" fill="white"/>
</svg>
