<svg width="18" height="18" viewBox="0 0 18 18" fill="none" xmlns="http://www.w3.org/2000/svg">
<path d="M3 9C3 9.09946 3.03951 9.19484 3.10984 9.26517C3.18016 9.33549 3.27554 9.375 3.375 9.375H9.96975L7.9845 11.3595C7.94963 11.3943 7.92197 11.4357 7.90308 11.4812C7.88419 11.5267 7.87445 11.5755 7.87442 11.6247C7.87435 11.7242 7.91381 11.8197 7.98413 11.8901C8.05444 11.9605 8.14985 12.0001 8.24936 12.0002C8.34887 12.0003 8.44433 11.9608 8.51475 11.8905L11.1397 9.2655C11.2101 9.19518 11.2495 9.09981 11.2495 9.00037C11.2495 8.90094 11.2101 8.80557 11.1397 8.73525L8.51475 6.11025C8.44402 6.04194 8.3493 6.00414 8.25097 6.005C8.15265 6.00585 8.0586 6.04529 7.98907 6.11482C7.91954 6.18435 7.8801 6.2784 7.87925 6.37672C7.87839 6.47505 7.91619 6.56977 7.9845 6.6405L9.96975 8.625H3.375C3.27554 8.625 3.18016 8.66451 3.10984 8.73483C3.03951 8.80516 3 8.90054 3 9ZM13.125 1.5H4.875C4.37772 1.5 3.90081 1.69754 3.54917 2.04917C3.19754 2.40081 3 2.87772 3 3.375V6.375C3 6.47446 3.03951 6.56984 3.10984 6.64017C3.18016 6.71049 3.27554 6.75 3.375 6.75C3.47446 6.75 3.56984 6.71049 3.64016 6.64017C3.71049 6.56984 3.75 6.47446 3.75 6.375V3.375C3.75 3.07663 3.86853 2.79048 4.0795 2.5795C4.29048 2.36853 4.57663 2.25 4.875 2.25H13.125C13.4234 2.25 13.7095 2.36853 13.9205 2.5795C14.1315 2.79048 14.25 3.07663 14.25 3.375V14.625C14.25 14.9234 14.1315 15.2095 13.9205 15.4205C13.7095 15.6315 13.4234 15.75 13.125 15.75H4.875C4.57663 15.75 4.29048 15.6315 4.0795 15.4205C3.86853 15.2095 3.75 14.9234 3.75 14.625V11.625C3.75 11.5255 3.71049 11.4302 3.64016 11.3598C3.56984 11.2895 3.47446 11.25 3.375 11.25C3.27554 11.25 3.18016 11.2895 3.10984 11.3598C3.03951 11.4302 3 11.5255 3 11.625V14.625C3 15.1223 3.19754 15.5992 3.54917 15.9508C3.90081 16.3025 4.37772 16.5 4.875 16.5H13.125C13.6223 16.5 14.0992 16.3025 14.4508 15.9508C14.8025 15.5992 15 15.1223 15 14.625V3.375C15 2.87772 14.8025 2.40081 14.4508 2.04917C14.0992 1.69754 13.6223 1.5 13.125 1.5Z" fill="white"/>
</svg>
