<svg width="54" height="18" viewBox="0 0 54 18" fill="none" xmlns="http://www.w3.org/2000/svg">
<path d="M49.9995 17.208L49.4932 14.6767H43.8367L42.9368 17.19L38.403 17.199C41.3175 10.1955 43.4805 5.00775 44.892 1.63575C45.261 0.753751 45.9158 0.303751 46.881 0.310501C47.619 0.316501 48.8235 0.31725 50.4945 0.31275L54 17.2013L49.9995 17.208ZM45.108 11.2095H48.7553L47.394 4.8645L45.108 11.2095ZM15.8895 0.30825L20.448 0.31275L13.401 17.2103L8.78625 17.2058C7.62581 12.7425 6.47981 8.27544 5.34825 3.80475C5.12325 2.91375 4.67775 2.2905 3.8205 1.99575C3.054 1.73325 1.7805 1.3275 0 0.778499V0.31275H7.28325C8.54325 0.31275 9.279 0.922501 9.51525 2.1735C9.75375 3.4275 10.3537 6.618 11.3152 11.745L15.8895 0.30825ZM26.712 0.31275L23.1097 17.208L18.7695 17.2013L22.365 0.30825L26.712 0.31275ZM35.5095 0C36.8077 0 38.4435 0.404999 39.384 0.778499L38.6235 4.2795C37.773 3.9375 36.3735 3.47625 35.1967 3.492C33.4867 3.52125 32.4293 4.239 32.4293 4.9275C32.4293 6.048 34.2653 6.61275 36.1553 7.83675C38.3108 9.23175 38.5965 10.485 38.5695 11.8485C38.5403 14.6722 36.1553 17.46 31.1243 17.46C28.8293 17.4263 28.0012 17.235 26.1292 16.569L26.9213 12.915C28.827 13.7115 29.6348 13.9657 31.2638 13.9657C32.7555 13.9657 34.0357 13.3628 34.047 12.312C34.056 11.565 33.597 11.1938 31.923 10.2713C30.249 9.34875 27.9 8.0685 27.9315 5.49675C27.9697 2.20725 31.086 0 35.5095 0Z" fill="black"/>
</svg>
